<?xml version="1.0" encoding="utf-8"?>
<!-- Generator: Adobe Illustrator 24.0.1, SVG Export Plug-In . SVG Version: 6.00 Build 0)  -->
<svg version="1.1" id="Layer_1" xmlns="http://www.w3.org/2000/svg" xmlns:xlink="http://www.w3.org/1999/xlink" x="0px" y="0px"
	 viewBox="0 0 100 100" style="enable-background:new 0 0 100 100;" xml:space="preserve">
<style type="text/css">
	.st0{fill:#000847;}
	.st1{fill:#004BFF;}
	.st2{fill-rule:evenodd;clip-rule:evenodd;fill:#FFFFFF;}
	.st3{fill:#FFFFFF;}
	.st4{fill:none;}
	.st5{fill:none;stroke:#000847;stroke-width:3;stroke-miterlimit:10;}
</style>
<g>
	<rect x="0" class="st4" width="100" height="100"/>
	<g>
		<g>
			<path class="st0" d="M34.8,27.4l0.9,0c1.2,0,2.3-0.4,3.1-1.3c0.8-0.8,1.3-1.9,1.3-3.1v-9.2h8.2V8.4H34.7V2.9h13.6V0.2h5.5v2.7
				h13.6v5.5H53.8v5.5h8.2v8.5c0,2.8,2.3,5.2,5.2,5.2H74c-0.2,0.8-0.2,1.6-0.2,2.5v14.1c0,0.8,0.1,1.7,0.2,2.5H34.7
				c-3,0-5.5,2.4-5.5,5.5v2.7H10.1V52C10.1,38.4,21.2,27.4,34.8,27.4L34.8,27.4z"/>
			<path class="st0" d="M87.1,22h4.8v30h-4.8c-4.4,0-7.9-3.6-7.9-7.9V30C79.2,25.6,82.8,22,87.1,22z"/>
		</g>
	</g>
	<g>
		<g>
			<g>
				<circle class="st1" cx="19.8" cy="69.7" r="9.6"/>
			</g>
		</g>
		<path class="st2" d="M22.1,75.3l1.8,0.4l-2.1-9.7l-1.6-0.4l-5.9,8L16,74l1.6-2.3l4,0.9L22.1,75.3z M18.6,70.4l2.1-3l0.7,3.6
			L18.6,70.4z"/>
		<g>
			<path class="st3" d="M23.9,64.8l-7.4,1.6c-0.9,0.9-1.9,1.8-2.8,2.7l-0.4-0.4l2.9-2.8l0,0l0,0l0,0c2.7-0.6,5.4-1.1,8-1.7
				c0.3,2.1,0.7,4.1,1,6.2l-0.5,0.1C24.5,68.5,24.2,66.7,23.9,64.8L23.9,64.8z M16.5,66.2c2.5-0.5,5-1.1,7.6-1.6
				c0.3,1.9,0.6,3.7,0.9,5.6l0.2,0l-1-5.8L16.4,66l-2.8,2.6l0.1,0.1L16.5,66.2L16.5,66.2L16.5,66.2L16.5,66.2L16.5,66.2z"/>
			<circle class="st2" cx="24.1" cy="64.6" r="0.7"/>
			<circle class="st2" cx="13.4" cy="68.9" r="0.7"/>
			<circle class="st2" cx="16.6" cy="66.2" r="0.8"/>
			<circle class="st2" cx="25.1" cy="70.2" r="0.7"/>
		</g>
	</g>
	<g>
		<g>
			<g>
				<circle class="st1" cx="20" cy="92.1" r="7.1"/>
			</g>
		</g>
		<path class="st2" d="M21.7,96.2l1.3,0.3l-1.5-7.2l-1.2-0.3L16,94.9l1.3,0.3l1.2-1.7l2.9,0.6L21.7,96.2z M19.1,92.6l1.5-2.2
			l0.5,2.6L19.1,92.6z"/>
		<g>
			<path class="st3" d="M23,88.5l-5.4,1.1c-0.7,0.7-1.4,1.3-2.1,2l-0.3-0.3l2.1-2l0,0l0,0l0,0c2-0.4,3.9-0.8,5.9-1.2
				c0.2,1.5,0.5,3,0.7,4.5l-0.4,0.1C23.5,91.2,23.3,89.8,23,88.5L23,88.5z M17.6,89.5c1.9-0.4,3.7-0.8,5.6-1.2
				c0.2,1.4,0.5,2.8,0.7,4.1l0.1,0l-0.7-4.3l-5.8,1.2l-2,1.9l0.1,0.1L17.6,89.5L17.6,89.5L17.6,89.5L17.6,89.5L17.6,89.5z"/>
			<circle class="st2" cx="23.1" cy="88.3" r="0.5"/>
			<circle class="st2" cx="15.3" cy="91.5" r="0.5"/>
			<circle class="st2" cx="17.7" cy="89.5" r="0.6"/>
			<circle class="st2" cx="23.9" cy="92.4" r="0.5"/>
		</g>
	</g>
</g>
</svg>
