<?xml version="1.0" encoding="utf-8"?>
<!-- Generator: Adobe Illustrator 24.0.1, SVG Export Plug-In . SVG Version: 6.00 Build 0)  -->
<svg version="1.1" id="Layer_1" xmlns="http://www.w3.org/2000/svg" xmlns:xlink="http://www.w3.org/1999/xlink" x="0px" y="0px"
	 viewBox="0 0 100 100" style="enable-background:new 0 0 100 100;" xml:space="preserve">
<style type="text/css">
	.st0{fill:#000847;}
	.st1{fill:#004BFF;}
	.st2{fill-rule:evenodd;clip-rule:evenodd;fill:#FFFFFF;}
	.st3{fill:#FFFFFF;}
	.st4{fill:none;}
	.st5{fill:none;stroke:#000847;stroke-width:3;stroke-miterlimit:10;}
</style>
<g>
	<rect x="0" class="st4" width="100" height="100"/>
	<g>
		<g>
			<g>
				<path class="st0" d="M98,56.3C98.2,56.6,98,56.2,98,56.3L98,56.3z"/>
				<path class="st0" d="M98,56.3c-0.2-0.4-0.5-0.8-0.9-1l-8.5-4.9c-0.7-0.4-1.6-0.2-1.9,0.5c-0.4,0.7-0.2,1.6,0.5,1.9l6.8,3.9
					L73.4,68.6L52.8,56.8l20.6-11.9l8,4.6c0.7,0.4,1.6,0.2,1.9-0.5c0.4-0.7,0.2-1.6-0.5-1.9l-8-4.6V16.6c0-0.8-0.4-1.5-1.1-1.9
					L51.1,1.7c-0.7-0.4-1.5-0.4-2.2,0L26.2,14.7c-0.7,0.4-1.1,1.1-1.1,1.9v11.7c0,0.8,0.6,1.4,1.4,1.4s1.4-0.6,1.4-1.4v-9.7
					l20.6,11.9v23.8L28,42.4v-7.6c0-0.8-0.6-1.4-1.4-1.4s-1.4,0.6-1.4,1.4v7.6L2.8,55.3c-0.7,0.4-1.1,1.1-1.1,1.9v26.1
					c0,0.8,0.4,1.5,1.1,1.9l22.6,13.1c0.7,0.4,1.5,0.4,2.2,0l13.2-7.6c0.7-0.4,0.9-1.3,0.5-1.9c-0.4-0.7-1.3-0.9-1.9-0.5L28,94.9
					V71.1l20.6-11.9V83l-3.2,1.9c-0.7,0.4-0.9,1.3-0.5,1.9c0.3,0.5,0.7,0.7,1.2,0.7c0.2,0,0.5-0.1,0.7-0.2l3.2-1.9l22.3,12.9
					c0.7,0.4,1.5,0.4,2.2,0l22.6-13.1c0.7-0.4,1.1-1.1,1.1-1.9V57.2C98.3,56.9,98.2,56.6,98,56.3z M25.1,94.9L4.5,83V59.2l20.6,11.9
					V94.9z M26.5,68.6L6,56.8l20.6-11.9l20.6,11.9L26.5,68.6z M29.4,16.2L50,4.3l20.6,11.9L50,28.1L29.4,16.2z M51.4,30.5L72,18.7
					v23.8L51.4,54.3V30.5z M72,94.9L51.4,83V59.2L72,71.1L72,94.9L72,94.9z M95.4,83L74.8,94.9V71.1l20.6-11.9V83z"/>
			</g>
		</g>
	</g>
	<polygon class="st1" points="50,28.1 70.5,16.2 50,4.3 29.4,16.2 	"/>
	<g>
		<g>
			<path class="st1" d="M69.1,38.9c-0.8,0-1.4,0.6-1.4,1.4v0.1c0,0.8,0.6,1.4,1.4,1.4s1.4-0.6,1.4-1.4v-0.1
				C70.5,39.5,69.9,38.9,69.1,38.9z"/>
		</g>
	</g>
	<g>
		<g>
			<path class="st1" d="M69.1,34.7c-0.8,0-1.4,0.6-1.4,1.4v0.1c0,0.8,0.6,1.4,1.4,1.4s1.4-0.6,1.4-1.4v-0.1
				C70.5,35.4,69.9,34.7,69.1,34.7z"/>
		</g>
	</g>
	<g>
		<g>
			<path class="st1" d="M69.1,30.6c-0.8,0-1.4,0.6-1.4,1.4v0.1c0,0.8,0.6,1.4,1.4,1.4s1.4-0.6,1.4-1.4V32
				C70.5,31.2,69.9,30.6,69.1,30.6z"/>
		</g>
	</g>
	<polygon class="st1" points="4.5,59.2 4.5,83 25.1,94.9 25.1,71.1 	"/>
	<g>
		<path class="st1" d="M53.6,43.6c-6.9-3.7-15.6-1.1-19.4,5.8c-3.7,6.9-1.1,15.6,5.8,19.4c6.2,3.3,13.7,1.6,18-3.7
			c0.3,0.5,0.7,0.9,1.2,1.2l10.1,5.5c1.5,0.8,3.3,0.2,4.1-1.2c0.8-1.5,0.2-3.3-1.2-4.1l-10.1-5.5c-0.5-0.3-1.1-0.4-1.7-0.3
			C62.5,54.1,59.8,46.9,53.6,43.6z M56.2,61.2c-2.8,5.2-9.3,7.1-14.5,4.3c-5.2-2.8-7.1-9.3-4.3-14.5c2.8-5.2,9.3-7.1,14.5-4.3
			C57.1,49.5,59,56,56.2,61.2z"/>
	</g>
	<circle class="st3" cx="46.9" cy="56.1" r="10.7"/>
	<polygon class="st1" points="74.8,94.9 95.4,83 95.4,59.2 74.8,71.1 	"/>
</g>
</svg>
