<?xml version="1.0" encoding="utf-8"?>
<!-- Generator: Adobe Illustrator 24.0.1, SVG Export Plug-In . SVG Version: 6.00 Build 0)  -->
<svg version="1.1" id="Layer_1" xmlns="http://www.w3.org/2000/svg" xmlns:xlink="http://www.w3.org/1999/xlink" x="0px" y="0px"
	 viewBox="0 0 100 100" style="enable-background:new 0 0 100 100;" xml:space="preserve">
<style type="text/css">
	.st0{fill:#000847;}
	.st1{fill:#004BFF;}
	.st2{fill-rule:evenodd;clip-rule:evenodd;fill:#FFFFFF;}
	.st3{fill:#FFFFFF;}
	.st4{fill:none;}
	.st5{fill:none;stroke:#000847;stroke-width:3;stroke-miterlimit:10;}
</style>
<g>
	<g>
		<g>
			<path class="st0" d="M62.9,50.8h27.2V40.3c0-2.6-2.1-4.6-4.6-4.6H12.2c-2.6,0-4.6,2.1-4.6,4.6v53.8c0,2.6,2.1,4.6,4.6,4.6h73.3
				c2.6,0,4.6-2.1,4.6-4.6V83.7H62.9c-5.6,0-10.1-4.6-10.1-10.1V60.9C52.8,55.3,57.3,50.8,62.9,50.8z"/>
		</g>
	</g>
	<g>
		<g>
			<path class="st0" d="M92.8,57.1H62.9c-2.1,0-3.8,1.7-3.8,3.8v12.6c0,2.1,1.7,3.8,3.8,3.8h29.9c2.1,0,3.8-1.7,3.8-3.8V60.9
				C96.6,58.8,94.9,57.1,92.8,57.1z M69.2,71.7c-2.5,0-4.5-2-4.5-4.5c0-2.5,2-4.5,4.5-4.5c2.5,0,4.5,2,4.5,4.5
				C73.7,69.7,71.7,71.7,69.2,71.7z"/>
		</g>
	</g>
	<g>
		<g>
			<g>
				<circle class="st1" cx="66.7" cy="13.8" r="12.6"/>
			</g>
		</g>
		<path class="st2" d="M71.4,20.3h2.4L68.4,8.4l-2.2,0l-5.4,11.9h2.3l1.4-3.3h5.4L71.4,20.3z M65.4,15l1.9-4.4l1.8,4.4H65.4z"/>
		<g>
			<path class="st3" d="M70.7,6.3l-9,4.1c-1,1.4-1.9,2.8-2.9,4.2l-0.6-0.4l2.9-4.3l0,0l0,0l0,0c3.3-1.5,6.5-3,9.8-4.4
				c1,2.5,2,5.1,3,7.6l-0.6,0.2C72.5,10.9,71.6,8.6,70.7,6.3L70.7,6.3z M61.6,10.2c3.1-1.4,6.2-2.8,9.2-4.2c0.9,2.3,1.8,4.6,2.8,6.9
				l0.2-0.1l-2.9-7.2L61.4,10l-2.8,4.2l0.2,0.1L61.6,10.2L61.6,10.2L61.6,10.2L61.6,10.2L61.6,10.2z"/>
			<circle class="st2" cx="70.8" cy="6.1" r="0.9"/>
			<circle class="st2" cx="58.4" cy="14.5" r="0.9"/>
			<circle class="st2" cx="61.7" cy="10.1" r="1.1"/>
			<circle class="st2" cx="73.7" cy="12.9" r="0.9"/>
		</g>
	</g>
	<g>
		<path class="st1" d="M36.9,25.6c0.1,0,0.2,0,0.4,0s0.3,0,0.5,0c0.1,0,0.3-0.1,0.4-0.1c0.2,0,0.3-0.1,0.4-0.2
			c0.1-0.1,0.2-0.1,0.3-0.2c0.1-0.1,0.2-0.2,0.2-0.3c0.1-0.1,0.1-0.3,0.1-0.4c0-0.2,0-0.4-0.1-0.5c-0.1-0.1-0.2-0.3-0.3-0.4
			c-0.1-0.1-0.2-0.2-0.4-0.2c-0.2-0.1-0.3-0.1-0.5-0.1S37.7,23,37.5,23c-0.2,0-0.4,0-0.5,0c-0.1,0-0.3,0-0.5,0c-0.2,0-0.3,0-0.3,0
			v2.6c0,0,0.1,0,0.3,0C36.7,25.6,36.8,25.6,36.9,25.6z"/>
		<path class="st1" d="M37.4,15.5c-7,0-12.6,5.6-12.6,12.6c0,0.5,0,1.1,0.1,1.6h8.8c0.2,0,0.3-0.2,0.4-0.4v-3.4h0.1c0,0-0.1,0-0.1,0
			v-2.4c-0.1-0.4-0.3-0.6-0.8-0.6h-0.9v-1.4l1.8,0c0.4,0,0.6,0,0.8,0v-2.1h1.3v2.1c0.5,0,0.8,0,1,0v-2.1h1.3v2.1
			c0.4,0,0.8,0.1,1.2,0.2c0.3,0.1,0.7,0.2,1,0.4c0.3,0.2,0.5,0.4,0.7,0.7c0.2,0.3,0.3,0.6,0.3,1c0.1,1-0.3,1.8-1.1,2.2
			c0.7,0.2,1.2,0.4,1.5,0.9c0.3,0.4,0.5,1,0.4,1.8c0,0.4-0.1,0.8-0.3,1.1c0,0,0,0,0,0.1h7.8c0.1-0.5,0.1-1,0.1-1.6
			C50,21.2,44.4,15.5,37.4,15.5z"/>
		<path class="st1" d="M36.2,29.7H38c0.1,0,0.2,0,0.4-0.1c0.2,0,0.3-0.1,0.5-0.1c0.1,0,0.3-0.1,0.4-0.2c0.1-0.1,0.3-0.2,0.3-0.3
			c0.1-0.1,0.2-0.2,0.2-0.3c0.1-0.1,0.1-0.3,0.1-0.4c0-0.2,0-0.4-0.1-0.5c-0.1-0.2-0.2-0.3-0.3-0.4c-0.1-0.1-0.3-0.2-0.5-0.3
			c-0.2-0.1-0.4-0.1-0.6-0.2c-0.2,0-0.4-0.1-0.6-0.1c-0.2,0-0.4,0-0.6,0c-0.1,0-0.3,0-0.5,0c-0.2,0-0.4,0-0.4,0V29.7z"/>
	</g>
	<rect class="st4" width="100" height="100"/>
</g>
</svg>
